<svg xmlns="http://www.w3.org/2000/svg" viewBox="0 0 900 900">
  <g opacity="0.08" fill="#7A1026">
    <path d="M447 360 C430 398, 432 440, 442 478 C449 500, 452 518, 440 536 C459 536, 473 526, 477 511 C482 489, 474 463, 470 445 C462 406, 463 381, 477 353 Z"/>
    <path d="M425 397 C389 377, 349 381, 328 407 C360 413, 391 413, 423 407 Z"/>
    <path d="M421 431 C390 420, 359 425, 337 447 C365 452, 394 454, 422 447 Z"/>
    <path d="M429 469 C404 460, 380 466, 362 483 C384 488, 409 489, 431 483 Z"/>
    <path d="M470 407 C502 413, 533 413, 565 407 C544 381, 504 377, 469 397 Z"/>
    <path d="M470 447 C498 454, 527 452, 555 447 C533 425, 502 420, 471 431 Z"/>
    <path d="M462 483 C484 489, 509 488, 531 483 C513 466, 489 460, 464 469 Z"/>
    <path d="M409 380 C383 348, 357 330, 323 312 C339 343, 364 366, 401 384 Z"/>
    <path d="M486 380 C512 348, 538 330, 572 312 C556 343, 531 366, 494 384 Z"/>
    <path d="M420 297 C408 271, 390 255, 372 244 C372 269, 384 292, 409 306 Z"/>
    <path d="M444 285 C438 255, 443 230, 454 208 C466 231, 468 257, 457 286 Z"/>
    <path d="M490 285 C496 255, 491 230, 480 208 C468 231, 466 257, 477 286 Z"/>
    <path d="M514 297 C526 271, 544 255, 562 244 C562 269, 550 292, 525 306 Z"/>
    <path d="M453 220 C427 220, 403 233, 388 256 C370 280, 369 312, 382 338 C396 366, 423 382, 453 388 C483 382, 510 366, 524 338 C537 312, 536 280, 518 256 C503 233, 479 220, 453 220 Z"/>
    <path d="M387 271 C369 292, 362 320, 364 349 C367 380, 385 407, 414 419 C402 386, 404 344, 413 315 C419 293, 409 276, 387 271 Z"/>
    <path d="M519 271 C537 292, 544 320, 542 349 C539 380, 521 407, 492 419 C504 386, 502 344, 493 315 C487 293, 497 276, 519 271 Z"/>
    <path d="M414 404 C421 428, 434 446, 453 458 C472 446, 485 428, 492 404 C481 409, 468 412, 453 414 C438 412, 425 409, 414 404 Z"/>
  </g>
</svg>